# xmcd CD database file
#
# Track frame offsets:
#	151
#	22761
#	38977
#	58997
#	82906
#	108356
#	127164
#	150848
#	170582
#	193897
#	215435
#	233845
#	257529
#	283760
#
# Disc length: 4034 seconds
#
# Revision: 0
# Processed by: cddbd v1.4PL0 Copyright (c) Steve Scherf et al.
# Submitted via: CDex 1.50
#
DISCID=bd0fc00e
DTITLE=Sonora Carruseles - Con Todos los Hierros
DYEAR=1900
DGENRE=Salsa
TTITLE0=micaela (remix)
TTITLE1=arranca en fa
TTITLE2=que suene mi campana
TTITLE3=mosaico 5
TTITLE4=mosaico 2
TTITLE5=mosaico 3
TTITLE6=mosaico 1
TTITLE7=arranca en fa (remix)
TTITLE8=que me entierren con rumba
TTITLE9=changaral
TTITLE10=lo atara la arache
TTITLE11=la rumba buena
TTITLE12=mosaico 4
TTITLE13=el bailarin de la avenida
EXTD=
EXTT0=
EXTT1=
EXTT2=
EXTT3=
EXTT4=
EXTT5=
EXTT6=
EXTT7=
EXTT8=
EXTT9=
EXTT10=
EXTT11=
EXTT12=
EXTT13=
PLAYORDER=
